# xmcd
#
# Track frame offsets: 
#        150
#        25242
#        47800
#        81725
#        101487
#        125985
#        147945
#        177970
#        191297
#        231075
#        256180
#        284235
#        315680
#
# Disc length: 4559 seconds
#
# Revision: 1
# Processed by: cddbd v1.5.2PL0 Copyright (c) Steve Scherf et al.
# Submitted via: ExactAudioCopy v0.99pb3
#
DISCID=c311cd0d
DTITLE=Gary Moore - Blues Alive 
DYEAR=1993
DGENRE=Blues
TTITLE0=Cold Day In Hell
TTITLE1=Walking By Myself
TTITLE2=Story Of The Blues
TTITLE3=Oh Pretty Woman
TTITLE4=Separate Ways
TTITLE5=Too Tired
TTITLE6=Still Got The Blues
TTITLE7=Since I Met You Baby
TTITLE8=The Sky Is Crying
TTITLE9=Further On Up The Road
TTITLE10=King Of The Blues
TTITLE11=Parisienne Walkways
TTITLE12=Jumpin' At Shadows
EXTD=YEAR: 1992
EXTT0=
EXTT1=
EXTT2=
EXTT3=
EXTT4=
EXTT5=
EXTT6=
EXTT7=
EXTT8=
EXTT9=
EXTT10=
EXTT11=
EXTT12=
PLAYORDER=
